# xmcd
#
# Track frame offsets: 
#        150
#        22363
#        52963
#        70514
#        89172
#        110697
#        125534
#        142360
#        165163
#        189268
#        207376
#        227872
#        250430
#        271555
#        289440
#        309582
#        337479
#
# Disc length: 4783 seconds
#
# Revision: 0
# Processed by: cddbd v1.5.2PL0 Copyright (c) Steve Scherf et al.
# Submitted via: ExactAudioCopy v1.1
#
DISCID=1012ad11
DTITLE=Various Artist - Akella Presents - vol.105 - Rockin' Blues  CD
DTITLE=1
DYEAR=2017
DGENRE=Blues
TTITLE0=Jimmy Nalls - The Voodoo In You
TTITLE1=Lal And The People - Eyes On You
TTITLE2=John Campbelljohn - Meet My Maker
TTITLE3=Stu Heydon - Memory Of You
TTITLE4=Don Ray Band - Victim Of Passion
TTITLE5=Dr.Feelgood - Wine Women and Whisky
TTITLE6=The Peacemakers - Pharaoh
TTITLE7=Ori Naftaly - Dust My Broom
TTITLE8=Stevie Ray Vaughan And Double Trouble - Texas Flood
TTITLE9=Paul Thorn - What the Hell Is Goin' On
TTITLE10=Jason Buie - Cold Cold Feeling
TTITLE11=John Verity - The Thrill is Gone
TTITLE12=Sugar Cane Train - It Hurts To Be In Love
TTITLE13=Devil's Hollow - Time Will Tell
TTITLE14=WT Feaster - Gunshy
TTITLE15=Topper Price and The Upsetters - Who's Been Talking
TTITLE16=Mike Hammar and the Nails - Recipe for the Blues
EXTD=
EXTT0=
EXTT1=
EXTT2=
EXTT3=
EXTT4=
EXTT5=
EXTT6=
EXTT7=
EXTT8=
EXTT9=
EXTT10=
EXTT11=
EXTT12=
EXTT13=
EXTT14=
EXTT15=
EXTT16=
PLAYORDER=
